<?xml version="1.0" encoding="UTF-8"?><svg id="a" xmlns="http://www.w3.org/2000/svg" viewBox="0 0 150 150"><defs><style>.b{fill:#fff;}</style></defs><path class="b" d="M137.37,65.92C132.15,25.24,88.6,.83,51.06,17.52,17.46,32.45,4.26,72.81,22.59,104.71c.73,1.27,.75,2.26,.18,3.55-3.39,7.63-6.71,15.29-10.04,22.95-1.03,2.38-.85,4.02,.55,5.39,1.41,1.38,3.11,1.54,5.41,.54,7.66-3.33,15.34-6.64,22.97-10.02,1.3-.57,2.28-.57,3.55,.17,9.55,5.53,19.88,8.25,29.02,8.29,27.4,0,51.85-15.75,60.94-43.27,2.84-8.59,3.34-17.46,2.2-26.39Zm-8.27,14.36c-3.29,27.11-26.24,46.88-52.72,46.91-10.74,.02-20.59-2.83-29.57-8.7-1.7-1.11-3.34-1.24-5.18-.43-5.02,2.22-10.06,4.38-15.1,6.56-.54,.23-1.09,.43-1.63,.64l-.3-.37c2.16-4.97,4.17-10.01,6.55-14.87,1.47-3.02,1.35-5.41-.53-8.29-4.05-6.18-6.28-13.06-7.36-20.44C18.13,46.34,48.71,15.34,85.03,21.37c28.03,4.65,47.49,30.63,44.07,58.91Z"/><path class="b" d="M93.21,36.64c-5.21-2.73-10.82-3.67-15.47-3.78-17.75-.3-29.49,10.48-30.7,27.04-.12,1.64,.31,2.12,1.95,2.08,4.57-.1,9.15-.07,13.73-.01,1.17,.01,1.43-.39,1.67-1.52,.6-2.83,1.09-5.81,2.37-8.36,2.69-5.36,10.52-7.37,15.56-4.08,1.52,.99,2.89,2.72,3.57,4.42,2.08,5.17,.66,10.42-3.52,14.11-2.05,1.82-4.27,3.45-6.35,5.23-4.19,3.61-7.16,7.96-7.83,13.58-.29,2.46-.4,4.94-.6,7.4-.1,1.25,.68,1.36,1.63,1.35,4.32-.06,8.64-.13,12.96-.14,1.11,0,1.5-.41,1.49-1.51-.01-1.4-.06-2.83,.25-4.18,.87-3.82,3.49-6.5,6.35-8.91,2.51-2.12,5.22-4.01,7.8-6.06,9.39-7.49,11.52-28.07-4.87-36.68Z"/><path class="b" d="M75.91,100.23c-4.83-.06-8.65,3.67-8.68,8.46-.03,4.65,3.78,8.49,8.46,8.55,4.67,.05,8.56-3.77,8.57-8.41,0-4.79-3.64-8.54-8.34-8.6Z"/></svg>